<svg height="480pt" viewBox="0 -8 480 480" width="480pt" xmlns="http://www.w3.org/2000/svg"><path d="m136 24-56 56v360h320v-416zm0 0" fill="#5da364"/><path d="m8 440h72l11.199219 11.199219c3.199219 3.199219 7.199219 4.800781 11.199219 4.800781h73.601562c8.800781 0 16-7.199219 16-16v-96c0-8.800781-7.199219-16-16-16h-40l14.398438-33.601562c3.203124-8 0-17.597657-8.796876-20.796876-1.601562-.800781-4-1.601562-5.601562-1.601562h-6.398438c-5.601562 0-11.203124 3.199219-13.601562 8l-36 64h-72zm0 0" fill="#efccbf"/><path d="m8 344h72v96h-72zm0 0" fill="#4a4a56"/><path d="m144 352h48v16h-48zm0 0" fill="#d8b4ad"/><path d="m144 384h48v16h-48zm0 0" fill="#d8b4ad"/><path d="m144 416h48v16h-48zm0 0" fill="#d8b4ad"/><path d="m40 344h16v64h-16zm0 0" fill="#676b7f"/><path d="m472 24h-72l-11.199219-11.199219c-3.199219-3.199219-7.199219-4.800781-11.199219-4.800781h-73.601562c-8.800781 0-16 7.199219-16 16v96c0 8.800781 7.199219 16 16 16h40l-14.398438 33.601562c-3.203124 8 0 17.597657 8.796876 20.796876 1.601562.800781 4 1.601562 6.402343 1.601562h6.398438c5.601562 0 11.199219-3.199219 13.601562-8l35.199219-64h72zm0 0" fill="#efccbf"/><path d="m400 24h72v96h-72zm0 0" fill="#4a4a56"/><path d="m288 96h48v16h-48zm0 0" fill="#d8b4ad"/><path d="m288 64h48v16h-48zm0 0" fill="#d8b4ad"/><path d="m288 32h48v16h-48zm0 0" fill="#d8b4ad"/><path d="m424 56h16v64h-16zm0 0" fill="#676b7f"/><path d="m472 400-35.199219-35.199219c-3.199219-3.199219-7.199219-4.800781-11.199219-4.800781h-185.601562c-8.800781 0-16-7.199219-16-16v-96c0-8.800781 7.199219-16 16-16h216c8.800781 0 16 7.199219 16 16zm0 0" fill="#f7d289"/><path d="m256 256h184v16h-184zm0 0" fill="#d3af6e"/><path d="m256 288h184v16h-184zm0 0" fill="#d3af6e"/><path d="m256 320h160v16h-160zm0 0" fill="#d3af6e"/><g fill="#538457"><path d="m168 72h88v16h-88zm0 0"/><path d="m112 112h144v16h-144zm0 0"/><path d="m112 152h144v16h-144zm0 0"/><path d="m112 192h184v16h-184zm0 0"/><path d="m80 80h56v-56zm0 0"/><path d="m112 232h80v16h-80zm0 0"/><path d="m224 392h144v16h-144zm0 0"/></g><path d="m403.199219 16-8.800781-8.800781c-4.796876-4.800781-10.398438-7.199219-16.796876-7.199219h-73.601562c-10.398438 0-19.199219 6.398438-22.398438 16h-148.800781l-60.800781 60.800781v211.199219h16v-200h56v-56h136v88c0 13.601562 10.398438 24 24 24h28l-9.601562 22.398438c-5.597657 12 .800781 26.402343 12.800781 31.203124 3.199219 1.597657 6.402343 1.597657 9.601562 1.597657h6.398438c8.800781 0 16.800781-4.800781 20.800781-12l32.800781-60h75.199219v-111.199219zm-304 56 28.800781-28.800781v28.800781zm258.402343 108c-1.601562 2.398438-4 4-7.203124 4h-6.398438c-4.800781 0-8-3.199219-8-8 0-.800781 0-2.398438.800781-3.199219l19.199219-44.800781h-52c-4.800781 0-8-3.199219-8-8v-8h40v-16h-40v-16h40v-16h-40v-16h40v-16h-40v-8c0-4.800781 3.199219-8 8-8h73.601562c2.398438 0 4 .800781 5.597657 2.398438l8.800781 8.800781v90.402343zm106.398438-68h-24v-56h-16v56h-16v-80h56zm0 0"/><path d="m456 224h-48v-48h-16v48h-152c-13.601562 0-24 10.398438-24 24v96c0 13.601562 10.398438 24 24 24h152v64h-192v-88c0-13.601562-10.398438-24-24-24h-28l9.601562-22.398438c5.597657-12-.800781-26.402343-12.800781-31.203124-2.402343-1.597657-5.601562-2.398438-8.800781-2.398438h-6.398438c-8.800781 0-16.800781 4.800781-20.800781 12l-33.601562 60h-75.199219v112h76.800781l8.800781 8.800781c4.796876 4.800781 10.398438 7.199219 16.796876 7.199219h73.601562c10.398438 0 19.199219-6.398438 22.398438-16h209.601562v-80h17.601562c2.398438 0 4 .800781 5.597657 2.398438l48.800781 48.800781v-171.199219c0-13.601562-10.398438-24-24-24zm-440 128h24v56h16v-56h16v80h-56zm160 96h-73.601562c-2.398438 0-4-.800781-5.597657-2.398438l-8.800781-8.800781v-90.402343l34.398438-61.597657c1.601562-2.402343 4-4 7.203124-4h6.398438c4.800781 0 8 3.199219 8 8 0 .800781 0 2.398438-.800781 3.199219l-19.199219 44h52c4.800781 0 8 3.199219 8 8v8h-40v16h40v16h-40v16h40v16h-40v16h40v8c0 4.800781-3.199219 8-8 8zm288-67.199219-21.601562-21.601562c-4.796876-4.800781-10.398438-7.199219-16.796876-7.199219h-185.601562c-4.800781 0-8-3.199219-8-8v-96c0-4.800781 3.199219-8 8-8h216c4.800781 0 8 3.199219 8 8zm0 0"/><path d="m256 256h184v16h-184zm0 0"/><path d="m256 288h184v16h-184zm0 0"/><path d="m256 320h160v16h-160zm0 0"/><path d="m168 72h88v16h-88zm0 0"/><path d="m112 112h144v16h-144zm0 0"/><path d="m112 152h144v16h-144zm0 0"/><path d="m112 192h184v16h-184zm0 0"/><path d="m112 232h80v16h-80zm0 0"/><path d="m224 392h144v16h-144zm0 0"/></svg>